<svg id="visual" viewBox="0 0 900 900" width="900" height="900" xmlns="http://www.w3.org/2000/svg" xmlns:xlink="http://www.w3.org/1999/xlink" version="1.1"><path d="M651 900L658.7 878.5C666.3 857 681.7 814 691 771.2C700.3 728.3 703.7 685.7 705 642.8C706.3 600 705.7 557 702.7 514.2C699.7 471.3 694.3 428.7 692.8 385.8C691.3 343 693.7 300 689.7 257.2C685.7 214.3 675.3 171.7 662.8 128.8C650.3 86 635.7 43 628.3 21.5L621 0L900 0L900 21.5C900 43 900 86 900 128.8C900 171.7 900 214.3 900 257.2C900 300 900 343 900 385.8C900 428.7 900 471.3 900 514.2C900 557 900 600 900 642.8C900 685.7 900 728.3 900 771.2C900 814 900 857 900 878.5L900 900Z" fill="#edb890"></path><path d="M745 900L737.5 878.5C730 857 715 814 700 771.2C685 728.3 670 685.7 675.8 642.8C681.7 600 708.3 557 710.8 514.2C713.3 471.3 691.7 428.7 690.5 385.8C689.3 343 708.7 300 714.8 257.2C721 214.3 714 171.7 715.8 128.8C717.7 86 728.3 43 733.7 21.5L739 0L900 0L900 21.5C900 43 900 86 900 128.8C900 171.7 900 214.3 900 257.2C900 300 900 343 900 385.8C900 428.7 900 471.3 900 514.2C900 557 900 600 900 642.8C900 685.7 900 728.3 900 771.2C900 814 900 857 900 878.5L900 900Z" fill="#f1c399"></path><path d="M734 900L734.2 878.5C734.3 857 734.7 814 736.2 771.2C737.7 728.3 740.3 685.7 749.5 642.8C758.7 600 774.3 557 773.5 514.2C772.7 471.3 755.3 428.7 742.3 385.8C729.3 343 720.7 300 720.5 257.2C720.3 214.3 728.7 171.7 728.5 128.8C728.3 86 719.7 43 715.3 21.5L711 0L900 0L900 21.5C900 43 900 86 900 128.8C900 171.7 900 214.3 900 257.2C900 300 900 343 900 385.8C900 428.7 900 471.3 900 514.2C900 557 900 600 900 642.8C900 685.7 900 728.3 900 771.2C900 814 900 857 900 878.5L900 900Z" fill="#f4cda2"></path><path d="M828 900L824 878.5C820 857 812 814 811.5 771.2C811 728.3 818 685.7 811.3 642.8C804.7 600 784.3 557 775 514.2C765.7 471.3 767.3 428.7 776.8 385.8C786.3 343 803.7 300 803.2 257.2C802.7 214.3 784.3 171.7 776 128.8C767.7 86 769.3 43 770.2 21.5L771 0L900 0L900 21.5C900 43 900 86 900 128.8C900 171.7 900 214.3 900 257.2C900 300 900 343 900 385.8C900 428.7 900 471.3 900 514.2C900 557 900 600 900 642.8C900 685.7 900 728.3 900 771.2C900 814 900 857 900 878.5L900 900Z" fill="#f7d8ac"></path><path d="M842 900L839.3 878.5C836.7 857 831.3 814 833.2 771.2C835 728.3 844 685.7 845 642.8C846 600 839 557 839.7 514.2C840.3 471.3 848.7 428.7 847.7 385.8C846.7 343 836.3 300 835.7 257.2C835 214.3 844 171.7 848.8 128.8C853.7 86 854.3 43 854.7 21.5L855 0L900 0L900 21.5C900 43 900 86 900 128.8C900 171.7 900 214.3 900 257.2C900 300 900 343 900 385.8C900 428.7 900 471.3 900 514.2C900 557 900 600 900 642.8C900 685.7 900 728.3 900 771.2C900 814 900 857 900 878.5L900 900Z" fill="#fbe2b6"></path></svg>